<svg width="24" height="24" viewBox="0 0 24 24" fill="none" xmlns="http://www.w3.org/2000/svg">
<path fill-rule="evenodd" clip-rule="evenodd" d="M5.20001 15.2L7.16365 13.2H21.2C21.6419 13.2 22 12.8418 22 12.4V6.8C22 6.35818 21.6419 6 21.2 6H6.00001C5.55819 6 5.20001 6.35818 5.20001 6.8V15.2ZM8.34094 10.3273L8.23184 11.5273H9.32275L9.21366 10.3273L10.2091 11.0227L10.7546 10.0682L9.66366 9.56364L10.7546 9.05909L10.2091 8.10455L9.21366 8.8L9.32275 7.6H8.23184L8.34094 8.8L7.34548 8.10455L6.80003 9.05909L7.89094 9.56364L6.80003 10.0682L7.34548 11.0227L8.34094 10.3273ZM17.8318 11.5273L17.9409 10.3273L16.9455 11.0227L16.4 10.0682L17.4909 9.56364L16.4 9.05909L16.9455 8.10455L17.9409 8.8L17.8318 7.6H18.9228L18.8137 8.8L19.8091 8.10455L20.3546 9.05909L19.2637 9.56364L20.3546 10.0682L19.8091 11.0227L18.8137 10.3273L18.9228 11.5273H17.8318ZM13.1409 10.3273L13.0318 11.5273H14.1227L14.0136 10.3273L15.0091 11.0227L15.5545 10.0682L14.4636 9.56364L15.5545 9.05909L15.0091 8.10455L14.0136 8.8L14.1227 7.6H13.0318L13.1409 8.8L12.1455 8.10455L11.6 9.05909L12.6909 9.56364L11.6 10.0682L12.1455 11.0227L13.1409 10.3273Z" fill="#203249"/>
<path fill-rule="evenodd" clip-rule="evenodd" d="M3.6 20.4V3.6H11.6V5.2H13.2V2.8C13.2 2.35818 12.8418 2 12.4 2H2.8C2.35818 2 2 2.35818 2 2.8V21.2C2 21.6418 2.35818 22 2.8 22H12.4C12.8418 22 13.2 21.6418 13.2 21.2V14H11.6V20.4H3.6ZM8.4 18.8C8.4 18.3582 8.04184 18 7.6 18C7.15816 18 6.8 18.3582 6.8 18.8C6.8 19.2418 7.15816 19.6 7.6 19.6C8.04184 19.6 8.4 19.2418 8.4 18.8Z" fill="#203249"/>
</svg>
